<?xml version="1.0" encoding="utf-8"?>
<!-- Generator: Adobe Illustrator 22.0.1, SVG Export Plug-In . SVG Version: 6.00 Build 0)  -->
<svg version="1.1" id="Layer_1" xmlns="http://www.w3.org/2000/svg" xmlns:xlink="http://www.w3.org/1999/xlink" x="0px" y="0px"
	 viewBox="0 0 471.2 131.2" style="enable-background:new 0 0 471.2 131.2;" xml:space="preserve">
<style type="text/css">
	.st0{enable-background:new    ;}
	.st1{fill:#2745FB;}
</style>
<g id="XMLID_3_">
	<g id="XMLID_74_" class="st0">
		<g id="XMLID_4_">
			<path class="st1" d="M2.8,49.8H14v9.3l0,0c1.9-2.8,3.7-5.6,7.4-7.4c3.7-1.9,7.4-2.8,12.1-2.8c2.8,0,5.6,0,8.4,0.9
				c3.7,0.9,5.6,1.9,7.4,3.7s3.7,4.7,4.7,7.4c1.9,2.8,1.9,6.5,1.9,10.2v38.2H44.7V74c0-2.8,0-5.6-0.9-7.4c-0.9-1.9-1.9-2.8-2.8-4.7
				C39.2,61,38.2,60,36.4,60c-1.9-0.9-3.7-0.9-4.7-0.9c-2.8,0-4.7,0-6.5,0.9c-2.8,0.9-4.7,1.9-5.6,3.7s-2.8,3.7-3.7,5.6
				C15,72.1,15,74.9,15,78.6v30.7H2.8V49.8z"/>
		</g>
		<g id="XMLID_6_">
			<path class="st1" d="M82,84.2c0,2.8,0.9,4.7,1.9,7.4c0.9,1.9,2.8,3.7,4.7,5.6c1.9,1.9,3.7,2.8,6.5,3.7c2.8,0.9,4.7,0.9,7.4,0.9
				c3.7,0,6.5-0.9,9.3-2.8c2.8-1.9,4.7-3.7,7.4-6.5l8.4,6.5c-6.5,8.4-14.9,12.1-26.1,12.1c-4.7,0-9.3-0.9-13-2.8
				c-3.7-1.9-7.4-3.7-9.3-6.5c-2.8-2.8-4.7-6.5-6.5-10.2c-1.9-3.7-2.8-7.4-2.8-12.1s0.9-8.4,2.8-12.1c1.9-3.7,3.7-7.4,6.5-10.2
				c2.8-2.8,5.6-4.7,10.2-6.5c4.7-1.9,8.4-2.8,12.1-2.8c5.6,0,10.2,0.9,13,2.8c3.7,1.9,6.5,4.7,9.3,7.4c2.8,2.8,3.7,6.5,4.7,10.2
				c0.9,3.7,1.9,7.4,1.9,11.2v3.7H82V84.2z M118.3,74.9c0-2.8-0.9-4.7-0.9-6.5c-0.9-2.8-2.8-4.7-3.7-6.5c-1.9-1.9-2.8-2.8-5.6-3.7
				c-2.8-0.9-4.7-0.9-7.4-0.9c-2.8,0-5.6,0.9-7.4,1.9c-1.9,0.9-4.7,2.8-5.6,3.7c-1.9,1.9-2.8,3.7-3.7,5.6c-0.9,1.9-0.9,3.7-0.9,6.5
				H118.3z"/>
		</g>
		<g id="XMLID_9_">
			<path class="st1" d="M196.5,109.4h-11.2v-9.3l0,0c-1.9,2.8-3.7,5.6-7.4,7.4c-3.7,1.9-7.4,2.8-12.1,2.8c-2.8,0-5.6,0-8.4-0.9
				c-2.8-0.9-4.7-1.9-6.5-3.7c-1.9-1.9-3.7-4.7-4.7-7.4c-0.9-2.8-1.9-6.5-1.9-10.2V49.8h11.2v35.4c0,2.8,0,5.6,0.9,7.4
				c0.9,1.9,1.9,3.7,2.8,4.7c0.9,0.9,2.8,1.9,4.7,2.8s3.7,0.9,4.7,0.9c2.8,0,4.7,0,6.5-0.9c1.9-0.9,3.7-1.9,5.6-3.7
				c1.9-1.9,2.8-3.7,3.7-6.5c0.9-2.8,0.9-5.6,0.9-9.3V49.8h11.2C196.5,49.8,196.5,109.4,196.5,109.4z"/>
		</g>
		<g id="XMLID_11_">
			<path class="st1" d="M245.8,59.1h-16.8v27c0,1.9,0,3.7,0,4.7c0,1.9,0,2.8,0.9,4.7c0.9,0.9,0.9,2.8,2.8,2.8
				c0.9,0.9,2.8,0.9,4.7,0.9c0.9,0,2.8,0,3.7,0c1.9,0,2.8-0.9,3.7-0.9v10.2c-0.9,0.9-2.8,0.9-5.6,1.9c-1.9,0-3.7,0-4.7,0
				c-4.7,0-7.4-0.9-10.2-1.9c-2.8-0.9-3.7-2.8-5.6-4.7c-0.9-1.9-1.9-3.7-1.9-6.5c0-2.8,0-4.7,0-7.4V59.1h-13v-9.3h13V33h11.2v16.8
				h16.8v9.3H245.8z"/>
		</g>
		<g id="XMLID_13_">
			<path class="st1" d="M260.7,49.8h11.2v9.3l0,0c0.9-1.9,1.9-2.8,2.8-4.7c0.9-0.9,2.8-2.8,4.7-3.7c1.9-0.9,3.7-1.9,4.7-1.9
				c0.9,0,3.7-0.9,5.6-0.9c1.9,0,3.7,0,4.7,0.9L293.3,61c-0.9,0-1.9,0-2.8-0.9c-0.9,0-1.9,0-2.8,0c-5.6,0-10.2,1.9-13,4.7
				c-2.8,2.8-4.7,8.4-4.7,14.9v29.8h-11.2V49.8H260.7z"/>
		</g>
		<g id="XMLID_15_">
			<path class="st1" d="M305.4,28.4c0-1.9,0.9-4.7,2.8-5.6c1.9-0.9,3.7-2.8,5.6-2.8s4.7,0.9,5.6,2.8c1.9,1.9,2.8,3.7,2.8,5.6
				s-0.9,3.7-1.9,5.6c-1.9,1.9-3.7,2.8-5.6,2.8s-4.7-0.9-6.5-2.8C306.3,32.1,305.4,30.2,305.4,28.4z M308.2,49.8h11.2v59.6h-11.2
				V49.8z"/>
		</g>
		<g id="XMLID_18_">
			<path class="st1" d="M338,49.8h11.2v9.3l0,0c1.9-2.8,3.7-5.6,7.4-7.4c3.7-1.9,7.4-2.8,12.1-2.8c2.8,0,5.6,0,8.4,0.9
				c2.8,0.9,4.7,1.9,6.5,3.7c1.9,1.9,3.7,4.7,4.7,7.4c0.9,2.8,1.9,6.5,1.9,10.2v38.2h-11.2V74c0-2.8,0-5.6-0.9-7.4
				c-0.9-1.9-1.9-2.8-2.8-4.7c-0.9-0.9-2.8-1.9-4.7-2.8c-1.9-0.9-3.7-0.9-4.7-0.9c-2.8,0-4.7,0-6.5,0.9c-1.9,0.9-3.7,1.9-5.6,3.7
				c-1.9,1.9-2.8,3.7-3.7,6.5c-0.9,2.8-0.9,5.6-0.9,9.3v30.7H338V49.8z"/>
		</g>
		<g id="XMLID_20_">
			<path class="st1" d="M405,79.6c0-4.7,0.9-8.4,2.8-12.1c1.9-3.7,3.7-7.4,6.5-10.2c2.8-2.8,6.5-4.7,10.2-6.5
				c3.7-1.9,8.4-2.8,12.1-2.8c4.7,0,8.4,0.9,12.1,2.8c3.7,1.9,7.4,3.7,10.2,6.5s4.7,6.5,6.5,10.2c2.8,3.7,2.8,7.4,2.8,12.1
				s-0.9,8.4-2.8,12.1c-1.9,3.7-3.7,7.4-6.5,10.2c-2.8,2.8-6.5,4.7-10.2,6.5c-3.7,1.9-8.4,2.8-12.1,2.8c-4.7,0-8.4-0.9-12.1-2.8
				c-3.7-1.9-7.4-3.7-10.2-6.5c-2.8-2.8-4.7-6.5-6.5-10.2C405.9,88,405,84.2,405,79.6z M417.1,79.6c0,2.8,0,5.6,0.9,8.4
				c0.9,2.8,1.9,4.7,3.7,6.5c1.9,1.9,3.7,2.8,6.5,4.7c2.8,0.9,5.6,1.9,8.4,1.9s5.6-0.9,8.4-1.9c2.8-0.9,4.7-2.8,6.5-4.7
				c1.9-1.9,2.8-3.7,3.7-6.5c0.9-2.8,0.9-5.6,0.9-8.4s0-5.6-0.9-8.4c-0.9-2.8-1.9-4.7-3.7-6.5c-1.9-1.9-3.7-2.8-6.5-4.7
				c-2.8-0.9-5.6-1.9-8.4-1.9s-5.6,0.9-8.4,1.9s-4.7,2.8-6.5,4.7c-1.9,1.9-2.8,3.7-3.7,6.5C418,74,417.1,76.8,417.1,79.6z"/>
		</g>
	</g>
	<g id="XMLID_2_">
		<circle class="st1" cx="433.9" cy="79.6" r="27"/>
	</g>
</g>
</svg>
