<?xml version="1.0" encoding="utf-8"?>
<!-- Generator: Adobe Illustrator 22.0.1, SVG Export Plug-In . SVG Version: 6.00 Build 0)  -->
<svg version="1.1" id="Layer_1" xmlns="http://www.w3.org/2000/svg" xmlns:xlink="http://www.w3.org/1999/xlink" x="0px" y="0px"
	 viewBox="0 0 53.5 14.9" style="enable-background:new 0 0 53.5 14.9;" xml:space="preserve">
<style type="text/css">
	.st0{enable-background:new    ;}
	.st1{fill:#FFFFFF;}
</style>
<g id="XMLID_3_">
	<g id="XMLID_74_" class="st0">
		<g id="XMLID_4_">
			<path class="st1" d="M2,5.7h1.2v1h0c0.2-0.3,0.4-0.6,0.8-0.8s0.8-0.3,1.3-0.3c0.3,0,0.6,0,0.9,0.1C6.6,5.8,6.8,5.9,7,6.1
				c0.2,0.2,0.4,0.5,0.5,0.8C7.7,7.2,7.7,7.6,7.7,8v4.1H6.5V8.3c0-0.3,0-0.6-0.1-0.8C6.3,7.3,6.2,7.2,6.1,7C5.9,6.9,5.8,6.8,5.6,6.8
				C5.4,6.7,5.2,6.7,5.1,6.7c-0.3,0-0.5,0-0.7,0.1C4.1,6.9,3.9,7,3.8,7.2S3.5,7.6,3.4,7.8c-0.1,0.3-0.1,0.6-0.1,1v3.3H2V5.7z"/>
		</g>
		<g id="XMLID_6_">
			<path class="st1" d="M10.5,9.4c0,0.3,0.1,0.5,0.2,0.8c0.1,0.2,0.3,0.4,0.5,0.6c0.2,0.2,0.4,0.3,0.7,0.4c0.3,0.1,0.5,0.1,0.8,0.1
				c0.4,0,0.7-0.1,1-0.3c0.3-0.2,0.5-0.4,0.8-0.7l0.9,0.7c-0.7,0.9-1.6,1.3-2.8,1.3c-0.5,0-1-0.1-1.4-0.3c-0.4-0.2-0.8-0.4-1-0.7
				c-0.3-0.3-0.5-0.7-0.7-1.1C9.3,9.8,9.2,9.4,9.2,8.9c0-0.5,0.1-0.9,0.3-1.3c0.2-0.4,0.4-0.8,0.7-1.1c0.3-0.3,0.6-0.5,1.1-0.7
				s0.9-0.3,1.3-0.3c0.6,0,1.1,0.1,1.4,0.3c0.4,0.2,0.7,0.5,1,0.8c0.3,0.3,0.4,0.7,0.5,1.1c0.1,0.4,0.2,0.8,0.2,1.2v0.4H10.5z
				 M14.4,8.4c0-0.3-0.1-0.5-0.1-0.7C14.2,7.4,14,7.2,13.9,7c-0.2-0.2-0.3-0.3-0.6-0.4s-0.5-0.1-0.8-0.1c-0.3,0-0.6,0.1-0.8,0.2
				c-0.2,0.1-0.5,0.3-0.6,0.4c-0.2,0.2-0.3,0.4-0.4,0.6c-0.1,0.2-0.1,0.4-0.1,0.7H14.4z"/>
		</g>
		<g id="XMLID_9_">
			<path class="st1" d="M22.8,12.1h-1.2v-1h0c-0.2,0.3-0.4,0.6-0.8,0.8c-0.4,0.2-0.8,0.3-1.3,0.3c-0.3,0-0.6,0-0.9-0.1
				c-0.3-0.1-0.5-0.2-0.7-0.4c-0.2-0.2-0.4-0.5-0.5-0.8c-0.1-0.3-0.2-0.7-0.2-1.1V5.7h1.2v3.8c0,0.3,0,0.6,0.1,0.8
				c0.1,0.2,0.2,0.4,0.3,0.5c0.1,0.1,0.3,0.2,0.5,0.3c0.2,0.1,0.4,0.1,0.5,0.1c0.3,0,0.5,0,0.7-0.1c0.2-0.1,0.4-0.2,0.6-0.4
				c0.2-0.2,0.3-0.4,0.4-0.7c0.1-0.3,0.1-0.6,0.1-1V5.7h1.2V12.1z"/>
		</g>
		<g id="XMLID_11_">
			<path class="st1" d="M28.1,6.7h-1.8v2.9c0,0.2,0,0.4,0,0.5c0,0.2,0,0.3,0.1,0.5c0.1,0.1,0.1,0.3,0.3,0.3c0.1,0.1,0.3,0.1,0.5,0.1
				c0.1,0,0.3,0,0.4,0c0.2,0,0.3-0.1,0.4-0.1v1.1c-0.1,0.1-0.3,0.1-0.6,0.2c-0.2,0-0.4,0-0.5,0c-0.5,0-0.8-0.1-1.1-0.2
				c-0.3-0.1-0.4-0.3-0.6-0.5c-0.1-0.2-0.2-0.4-0.2-0.7c0-0.3,0-0.5,0-0.8V6.7h-1.4V5.7h1.4V3.9h1.2v1.8h1.8V6.7z"/>
		</g>
		<g id="XMLID_13_">
			<path class="st1" d="M29.7,5.7h1.2v1h0c0.1-0.2,0.2-0.3,0.3-0.5c0.1-0.1,0.3-0.3,0.5-0.4c0.2-0.1,0.4-0.2,0.5-0.2
				s0.4-0.1,0.6-0.1c0.2,0,0.4,0,0.5,0.1l-0.1,1.3c-0.1,0-0.2,0-0.3-0.1c-0.1,0-0.2,0-0.3,0c-0.6,0-1.1,0.2-1.4,0.5
				c-0.3,0.3-0.5,0.9-0.5,1.6v3.2h-1.2V5.7z"/>
		</g>
		<g id="XMLID_15_">
			<path class="st1" d="M34.5,3.4c0-0.2,0.1-0.5,0.3-0.6s0.4-0.3,0.6-0.3s0.5,0.1,0.6,0.3c0.2,0.2,0.3,0.4,0.3,0.6S36.2,3.8,36.1,4
				c-0.2,0.2-0.4,0.3-0.6,0.3S35,4.2,34.8,4C34.6,3.8,34.5,3.6,34.5,3.4z M34.8,5.7H36v6.4h-1.2V5.7z"/>
		</g>
		<g id="XMLID_18_">
			<path class="st1" d="M38,5.7h1.2v1h0c0.2-0.3,0.4-0.6,0.8-0.8s0.8-0.3,1.3-0.3c0.3,0,0.6,0,0.9,0.1c0.3,0.1,0.5,0.2,0.7,0.4
				c0.2,0.2,0.4,0.5,0.5,0.8c0.1,0.3,0.2,0.7,0.2,1.1v4.1h-1.2V8.3c0-0.3,0-0.6-0.1-0.8C42.2,7.3,42.1,7.2,42,7
				c-0.1-0.1-0.3-0.2-0.5-0.3c-0.2-0.1-0.4-0.1-0.5-0.1c-0.3,0-0.5,0-0.7,0.1c-0.2,0.1-0.4,0.2-0.6,0.4s-0.3,0.4-0.4,0.7
				c-0.1,0.3-0.1,0.6-0.1,1v3.3H38V5.7z"/>
		</g>
		<g id="XMLID_20_">
			<path class="st1" d="M45.2,8.9c0-0.5,0.1-0.9,0.3-1.3c0.2-0.4,0.4-0.8,0.7-1.1c0.3-0.3,0.7-0.5,1.1-0.7s0.9-0.3,1.3-0.3
				c0.5,0,0.9,0.1,1.3,0.3c0.4,0.2,0.8,0.4,1.1,0.7c0.3,0.3,0.5,0.7,0.7,1.1C52,8,52,8.4,52,8.9s-0.1,0.9-0.3,1.3
				c-0.2,0.4-0.4,0.8-0.7,1.1c-0.3,0.3-0.7,0.5-1.1,0.7c-0.4,0.2-0.9,0.3-1.3,0.3c-0.5,0-0.9-0.1-1.3-0.3s-0.8-0.4-1.1-0.7
				c-0.3-0.3-0.5-0.7-0.7-1.1C45.3,9.8,45.2,9.4,45.2,8.9z M46.5,8.9c0,0.3,0,0.6,0.1,0.9c0.1,0.3,0.2,0.5,0.4,0.7
				c0.2,0.2,0.4,0.3,0.7,0.5c0.3,0.1,0.6,0.2,0.9,0.2s0.6-0.1,0.9-0.2c0.3-0.1,0.5-0.3,0.7-0.5c0.2-0.2,0.3-0.4,0.4-0.7
				c0.1-0.3,0.1-0.6,0.1-0.9s0-0.6-0.1-0.9c-0.1-0.3-0.2-0.5-0.4-0.7c-0.2-0.2-0.4-0.3-0.7-0.5c-0.3-0.1-0.6-0.2-0.9-0.2
				S48,6.7,47.7,6.8c-0.3,0.1-0.5,0.3-0.7,0.5c-0.2,0.2-0.3,0.4-0.4,0.7C46.6,8.3,46.5,8.6,46.5,8.9z"/>
		</g>
	</g>
	<g id="XMLID_2_">
		<circle class="st1" cx="48.3" cy="8.9" r="2.9"/>
	</g>
</g>
</svg>
