<?xml version="1.0" encoding="UTF-8"?>
<svg width="26px" height="16px" viewBox="0 0 26 16" version="1.1" xmlns="http://www.w3.org/2000/svg" xmlns:xlink="http://www.w3.org/1999/xlink">
    <!-- Generator: Sketch 43.1 (39012) - http://www.bohemiancoding.com/sketch -->
    <title>Amazon_Web_Services_Logo</title>
    <desc>Created with Sketch.</desc>
    <defs></defs>
    <g id="Page-1" stroke="none" stroke-width="1" fill="none" fill-rule="evenodd">
        <g id="Proxy-Creator---1b" transform="translate(-84.000000, -104.000000)" fill="#FFFFFF">
            <g id="Group-6" transform="translate(71.000000, 85.000000)">
                <g id="Amazon_Web_Services_Logo" transform="translate(13.000000, 19.000000)">
                    <path d="M7.30040683,5.59070968 C7.30040683,5.90700365 7.33460077,6.16345822 7.39444017,6.35152491 C7.46282806,6.5395916 7.54831291,6.74475525 7.66799171,6.96701588 C7.71073414,7.03540377 7.72783111,7.10379165 7.72783111,7.16363105 C7.72783111,7.24911591 7.6765402,7.33460077 7.56540988,7.42008563 L7.02685528,7.77912203 C6.94991891,7.83041294 6.87298254,7.8560584 6.80459465,7.8560584 C6.7191098,7.8560584 6.63362494,7.81331597 6.54814008,7.7363796 C6.42846128,7.60815231 6.32587945,7.47137654 6.24039459,7.33460077 C6.15490974,7.18927651 6.06942488,7.02685528 5.97539154,6.83024011 C5.30860965,7.6167008 4.47085804,8.00993114 3.46213673,8.00993114 C2.74406392,8.00993114 2.17131538,7.80476749 1.75243958,7.39444017 C1.33356378,6.98411285 1.11985163,6.43700977 1.11985163,5.75313091 C1.11985163,5.02650962 1.37630621,4.4366641 1.89776384,3.99214284 C2.41922147,3.54762158 3.11164881,3.32536095 3.99214284,3.32536095 C4.28279136,3.32536095 4.58198836,3.35100641 4.89828233,3.39374884 C5.2145763,3.43649127 5.53941876,3.50487916 5.88135819,3.58181553 L5.88135819,2.95777607 C5.88135819,2.30809115 5.74458242,1.85502141 5.47957936,1.59001835 C5.20602782,1.32501529 4.74440959,1.196788 4.08617619,1.196788 C3.78697919,1.196788 3.4792337,1.23098195 3.16293973,1.30791832 C2.84664575,1.38485469 2.53890027,1.47888803 2.23970327,1.59856683 C2.10292749,1.65840623 2.00034566,1.69260018 1.94050626,1.70969715 C1.88066686,1.72679412 1.83792444,1.73534261 1.80373049,1.73534261 C1.68405169,1.73534261 1.62421229,1.64985775 1.62421229,1.47033955 L1.62421229,1.05146375 C1.62421229,0.914687975 1.64130926,0.812106146 1.68405169,0.752266746 C1.72679412,0.692427345 1.80373049,0.632587945 1.92340929,0.572748545 C2.22260629,0.418875802 2.5816427,0.290648515 3.0005185,0.188066686 C3.4193943,0.0769363717 3.86391556,0.0256454572 4.33408227,0.0256454572 C5.35135208,0.0256454572 6.09507034,0.256454572 6.57378554,0.718072803 C7.04395225,1.17969103 7.28330986,1.88066686 7.28330986,2.8210003 L7.28330986,5.59070968 L7.30040683,5.59070968 Z M3.82972161,6.89007951 C4.11182164,6.89007951 4.40247016,6.8387886 4.71021565,6.73620677 C5.01796113,6.63362494 5.29151268,6.44555825 5.52232179,6.18910368 C5.65909756,6.02668245 5.76167939,5.84716425 5.81297031,5.64200059 C5.86426122,5.43683693 5.89845516,5.18893085 5.89845516,4.89828233 L5.89845516,4.53924593 C5.65054908,4.47940653 5.38554602,4.42811562 5.11199448,4.39392167 C4.83844293,4.35972773 4.57343987,4.34263076 4.30843682,4.34263076 C3.73568827,4.34263076 3.31681247,4.45376107 3.03471244,4.68457019 C2.75261241,4.9153793 2.61583664,5.24022176 2.61583664,5.66764605 C2.61583664,6.06942488 2.71841847,6.36862188 2.93213061,6.57378554 C3.13729427,6.78749768 3.43649127,6.89007951 3.82972161,6.89007951 Z M10.6941557,7.81331597 C10.5402829,7.81331597 10.4377011,7.78767051 10.3693132,7.72783111 C10.3009253,7.6765402 10.2410859,7.5568614 10.189795,7.39444017 L8.18090086,0.786460689 C8.12960994,0.615490974 8.10396449,0.504360659 8.10396449,0.444521259 C8.10396449,0.307745487 8.17235237,0.230809115 8.30912814,0.230809115 L9.14687975,0.230809115 C9.30930098,0.230809115 9.42043129,0.256454572 9.48027069,0.316293973 C9.54865858,0.367584887 9.59994949,0.487263687 9.65124041,0.649684917 L11.087386,6.30878248 L12.4209498,0.649684917 C12.4636922,0.478715202 12.5149831,0.367584887 12.583371,0.316293973 C12.6517589,0.265003058 12.7714377,0.230809115 12.9253104,0.230809115 L13.6091893,0.230809115 C13.7716105,0.230809115 13.8827409,0.256454572 13.9511287,0.316293973 C14.0195166,0.367584887 14.079356,0.487263687 14.11355,0.649684917 L15.4642107,6.37717037 L16.9430987,0.649684917 C16.9943897,0.478715202 17.0542291,0.367584887 17.1140685,0.316293973 C17.1824563,0.265003058 17.2935867,0.230809115 17.4474594,0.230809115 L18.2424686,0.230809115 C18.3792444,0.230809115 18.4561807,0.299197001 18.4561807,0.444521259 C18.4561807,0.487263687 18.4476322,0.530006116 18.4390838,0.581297031 C18.4305353,0.632587945 18.4134383,0.700975831 18.3792444,0.795009174 L16.3190593,7.40298866 C16.2677684,7.57395837 16.207929,7.68508869 16.1395411,7.7363796 C16.0711532,7.78767051 15.9600229,7.82186446 15.8146986,7.82186446 L15.0795289,7.82186446 C14.9171076,7.82186446 14.8059773,7.796219 14.7375894,7.7363796 C14.6692015,7.6765402 14.6093621,7.56540988 14.5751682,7.39444017 L13.2501529,1.88066686 L11.9336861,7.38589168 C11.8909437,7.5568614 11.8396528,7.66799171 11.7712649,7.72783111 C11.702877,7.78767051 11.5831982,7.81331597 11.4293254,7.81331597 L10.6941557,7.81331597 Z M21.6789599,8.04412509 C21.2344386,8.04412509 20.7899173,7.99283417 20.362493,7.89025234 C19.9350688,7.78767051 19.6016778,7.6765402 19.3794172,7.54831291 C19.2426414,7.47137654 19.1486081,7.38589168 19.1144141,7.30895531 C19.0802202,7.23201894 19.0631232,7.14653408 19.0631232,7.06959771 L19.0631232,6.63362494 C19.0631232,6.45410674 19.1315111,6.36862188 19.2597384,6.36862188 C19.3110293,6.36862188 19.3623202,6.37717037 19.4136111,6.39426734 C19.464902,6.41136431 19.5418384,6.44555825 19.6273233,6.4797522 C19.9179718,6.60797948 20.2342658,6.71056131 20.5676567,6.7789492 C20.9095961,6.84733708 21.2429871,6.88153103 21.5849265,6.88153103 C22.1234811,6.88153103 22.5423569,6.78749768 22.8330054,6.599431 C23.1236539,6.41136431 23.2775267,6.13781277 23.2775267,5.78732485 C23.2775267,5.54796725 23.2005903,5.35135208 23.0467176,5.18893085 C22.8928448,5.02650962 22.6021963,4.88118536 22.1833205,4.74440959 L20.9437901,4.35972773 C20.3197506,4.16311256 19.8581324,3.87246404 19.5760324,3.48778218 C19.2939323,3.11164881 19.1486081,2.69277301 19.1486081,2.24825175 C19.1486081,1.88921535 19.2255444,1.57292138 19.3794172,1.29936983 C19.5332899,1.02581829 19.7384536,0.786460689 19.9949082,0.598394002 C20.2513627,0.40177883 20.5420112,0.256454572 20.8839507,0.153872743 C21.2258901,0.0512909145 21.5849265,0.00854848575 21.9610599,0.00854848575 C22.1491266,0.00854848575 22.3457417,0.0170969715 22.5338084,0.0427424287 C22.7304236,0.068387886 22.9099418,0.102581829 23.08946,0.136775772 C23.2604297,0.179518201 23.4228509,0.222260629 23.5767237,0.273551544 C23.7305964,0.324842458 23.8502752,0.376133373 23.9357601,0.427424287 C24.0554389,0.495812173 24.1409237,0.564200059 24.1922147,0.641136431 C24.2435056,0.709524317 24.269151,0.80355766 24.269151,0.923236461 L24.269151,1.32501529 C24.269151,1.50453349 24.2007631,1.59856683 24.0725359,1.59856683 C24.004148,1.59856683 23.8930177,1.56437289 23.7476934,1.49598501 C23.2604297,1.27372438 22.7133266,1.16259406 22.1063841,1.16259406 C21.6191205,1.16259406 21.2344386,1.23953043 20.9694355,1.40195166 C20.7044325,1.56437289 20.5676567,1.81227898 20.5676567,2.16276689 C20.5676567,2.40212449 20.6531416,2.60728815 20.8241113,2.76970938 C20.995081,2.93213061 21.311375,3.09455184 21.7644447,3.2398761 L22.9783297,3.62455796 C23.5938207,3.82117313 24.0383419,4.09472467 24.303345,4.44521259 C24.568348,4.7957005 24.6965753,5.19747933 24.6965753,5.64200059 C24.6965753,6.00958548 24.6196389,6.34297642 24.4743147,6.63362494 C24.3204419,6.92427345 24.1152783,7.18072803 23.8502752,7.38589168 C23.5852722,7.59960383 23.2689782,7.75347657 22.9013933,7.86460689 C22.5167115,7.98428569 22.1149326,8.04412509 21.6789599,8.04412509 Z" id="Shape" fill-rule="nonzero"></path>
                    <g id="Group" transform="translate(0.000000, 9.574304)">
                        <path d="M23.2946237,2.62438512 C20.4821718,4.70166716 16.3959957,5.80442182 12.882568,5.80442182 C7.95864023,5.80442182 3.52197613,3.98359436 0.170969715,0.957430403 C-0.0940333432,0.718072803 0.145324258,0.393230344 0.46161823,0.581297031 C4.08617619,2.68422452 8.55703423,3.9579489 13.181765,3.9579489 C16.3019623,3.9579489 19.7299051,3.30826398 22.8842963,1.97470021 C23.3544631,1.76098806 23.7562419,2.28244569 23.2946237,2.62438512 Z" id="Shape"></path>
                        <path d="M24.4657662,1.29082135 C24.1067298,0.829203117 22.0892872,1.06856072 21.1745992,1.17969103 C20.9010476,1.21388498 20.8583052,0.974527375 21.1062113,0.795009174 C22.7133266,-0.333390944 25.3548087,-0.00854848575 25.6625542,0.367584887 C25.9702997,0.752266746 25.5770694,3.39374884 24.0725359,4.65892473 C23.8417267,4.8555399 23.6194661,4.75295807 23.7220479,4.4965035 C24.0639874,3.65020341 24.8248026,1.74389109 24.4657662,1.29082135 Z" id="Shape"></path>
                    </g>
                </g>
            </g>
        </g>
    </g>
</svg>