<?xml version="1.0" encoding="UTF-8"?>
<svg width="26px" height="27px" viewBox="0 0 26 27" version="1.1" xmlns="http://www.w3.org/2000/svg" xmlns:xlink="http://www.w3.org/1999/xlink">
    <!-- Generator: Sketch 43.1 (39012) - http://www.bohemiancoding.com/sketch -->
    <title>DO_Logo_icon_blue</title>
    <desc>Created with Sketch.</desc>
    <defs></defs>
    <g id="Page-1" stroke="none" stroke-width="1" fill="none" fill-rule="evenodd">
        <g id="Proxy-Creator---1b" transform="translate(-84.000000, -156.000000)" fill-rule="nonzero" fill="#FFFFFF">
            <g id="Group-4" transform="translate(71.000000, 148.000000)">
                <g id="DO_Logo_icon_blue" transform="translate(13.000000, 8.737754)">
                    <g id="XMLID_48_">
                        <path d="M12.8644568,25.7726703 L12.8644568,20.7844115 C18.1444266,20.7844115 22.2429667,15.5481984 20.215575,9.99110309 C19.4717119,7.93454026 17.8235445,6.28637289 15.7669817,5.54250974 C10.2098864,3.52970357 4.97367321,7.61365812 4.97367321,12.8936279 L4.97367321,12.8936279 L-1.77635684e-15,12.8936279 C-1.77635684e-15,4.47776445 8.13873799,-2.08573393 16.9629969,0.67093539 C20.8135826,1.8815362 23.8911341,4.94450211 25.0871494,8.79508783 C27.8438187,17.6339323 21.2949058,25.7726703 12.8644568,25.7726703 Z" id="XMLID_49_"></path>
                    </g>
                    <polygon id="XMLID_47_" points="12.8790424 20.7989971 7.91995471 20.7989971 7.91995471 15.8399094 7.91995471 15.8399094 12.8790424 15.8399094 12.8790424 15.8399094"></polygon>
                    <polygon id="XMLID_46_" points="7.91995471 24.6204117 4.0985401 24.6204117 4.0985401 24.6204117 4.0985401 20.7989971 7.91995471 20.7989971"></polygon>
                    <polygon id="XMLID_45_" points="4.0985401 20.7989971 0.904304221 20.7989971 0.904304221 20.7989971 0.904304221 17.6047612 0.904304221 17.6047612 4.0985401 17.6047612 4.0985401 17.6047612"></polygon>
                </g>
            </g>
        </g>
    </g>
</svg>