<?xml version="1.0" encoding="UTF-8"?>
<svg width="30px" height="30px" viewBox="0 0 30 30" version="1.1" xmlns="http://www.w3.org/2000/svg" xmlns:xlink="http://www.w3.org/1999/xlink">
    <!-- Generator: Sketch 55.2 (78181) - https://sketchapp.com -->
    <title>Artboard</title>
    <desc>Created with Sketch.</desc>
    <defs>
        <polygon id="path-1" points="0 0 27 0 27 29 0 29"></polygon>
    </defs>
    <g id="Artboard" stroke="none" stroke-width="1" fill="none" fill-rule="evenodd">
        <g id="Group-17" transform="translate(2.000000, 0.000000)">
            <mask id="mask-2" fill="white">
                <use xlink:href="#path-1"></use>
            </mask>
            <g id="Clip-15"></g>
            <path d="M26.0108486,16.8330295 L22.9666185,19.0066629 L23.3241545,15.3052638 L26.553879,13.2347561 L26.0108486,16.8330295 Z M22.5700175,19.080473 L21.3611992,18.3268448 L21.4919766,16.3999018 C21.492106,16.397932 21.4913299,16.3960781 21.4914592,16.3941083 C21.4914592,16.3914432 21.4923647,16.388894 21.4923647,16.386229 C21.492106,16.3780021 21.489907,16.3702387 21.4884841,16.3622436 C21.4877079,16.3574929 21.4875786,16.3526263 21.486285,16.3479914 C21.4781357,16.3184442 21.4615783,16.2914461 21.4380358,16.2694305 C21.4345432,16.2660702 21.4301452,16.2634052 21.4262645,16.2603925 C21.4194087,16.2549466 21.4130704,16.2489213 21.4053091,16.2444023 L18.8047652,14.7057447 L18.8425367,13.0177287 L22.935056,15.3016718 L22.5700175,19.080473 Z M20.8225668,20.5354714 L16.9623683,23.2934447 L16.926149,19.4039862 L21.079853,16.7429973 L20.8225668,20.5354714 Z M14.8573817,21.9814318 L14.794774,20.6718521 C14.7946447,20.6681442 14.7930924,20.664784 14.7927044,20.6611919 C14.7915402,20.6519222 14.7898586,20.6428843 14.7872715,20.6339621 C14.7855899,20.6285162 14.7836496,20.6231861 14.7814505,20.617856 C14.7778286,20.6095133 14.7734305,20.6015181 14.7685151,20.5937547 C14.7654106,20.589004 14.7625648,20.5840215 14.7589428,20.5795025 C14.7528632,20.5717392 14.7456193,20.5647869 14.7382461,20.5580663 C14.7343655,20.5544743 14.7308729,20.5505347 14.7266042,20.5472903 C14.7255694,20.5464792 14.7247932,20.5454363 14.7237584,20.5446252 L13.1933647,19.4256542 L14.6007422,18.576432 C14.6567527,18.5425975 14.6890914,18.4852411 14.6862456,18.4248721 L14.6720166,18.1259236 L16.537956,19.4017847 L16.5740459,23.2758322 L14.8573817,21.9814318 Z M9.66405508,28.5018684 L9.66392572,28.5018684 L9.00602847,24.4785784 L14.4224916,21.007416 L14.611608,24.9706846 L9.66405508,28.5018684 Z M5.58809313,24.833261 L4.71236281,21.0441472 L8.61434288,24.4818228 L9.23951344,28.3051186 L5.58809313,24.833261 Z M4.04631622,18.1668263 L2.85910014,13.0289683 L7.2822497,16.3302631 L8.14763166,21.6273285 L4.04631622,18.1668263 Z M2.1120776,9.80241061 L0.474448961,2.71652104 L5.51668942,5.52489848 L6.74504025,13.0370793 L6.74491089,13.0370793 L2.1120776,9.80241061 Z M5.91005661,5.53231426 L13.5573684,2.89994562 L13.8978296,10.0324155 L7.15962159,13.17346 L5.91005661,5.53231426 Z M14.0434828,13.0844707 L14.0434828,13.0844707 L14.2939132,18.3423716 L8.56777525,21.7977754 L7.67471142,16.3316535 L14.0434828,13.0844707 Z M26.9999553,12.8491357 C26.9996348,12.8458913 26.9983412,12.8428787 26.9979532,12.8396343 C26.9970477,12.8331454 26.9956248,12.8268884 26.9939432,12.8206313 C26.9916148,12.8114775 26.9885103,12.8024395 26.9845003,12.7936333 C26.9819132,12.7879556 26.9790674,12.7822779 26.9757042,12.7768319 C26.97053,12.7682574 26.964321,12.7603782 26.9575946,12.7527306 C26.9535846,12.7479799 26.9497039,12.7431133 26.9450472,12.7388261 C26.9366391,12.7311785 26.9270669,12.7245739 26.9171066,12.7182009 C26.9132259,12.7157676 26.9103801,12.7125232 26.9062408,12.7103217 C26.9053353,12.7097423 26.9041711,12.7096264 26.9032656,12.7091629 C26.9021015,12.7085836 26.9013253,12.7077725 26.9001611,12.7071931 L22.4802454,10.5133981 C22.4193194,10.4831556 22.3445525,10.4844302 22.2850494,10.517106 L18.5542054,12.5601522 C18.5477377,12.5637442 18.5426929,12.568495 18.5368719,12.5726663 C18.5307922,12.5769536 18.5241951,12.5808932 18.5186329,12.5857598 C18.5122945,12.5915534 18.5071203,12.5981581 18.5016875,12.6046469 C18.49716,12.6100928 18.4921152,12.6150753 18.4882346,12.620753 C18.4835778,12.627937 18.4804733,12.6359322 18.4769807,12.6435797 C18.4742643,12.649605 18.4707717,12.6553986 18.4688314,12.6616556 C18.466115,12.6699984 18.4654682,12.6789205 18.464304,12.6877267 C18.4635279,12.6935203 18.4614582,12.6990821 18.4613288,12.7049916 L18.421617,14.4791 L16.9039,13.581096 C16.8410337,13.5439012 16.7599284,13.5426266 16.6957686,13.5777357 L14.5122637,14.7732978 L14.4175762,12.7851747 C14.4174468,12.7800763 14.4155065,12.7753256 14.4147304,12.7702272 C14.4136955,12.7628115 14.4126607,12.7552798 14.4104617,12.7480958 C14.408392,12.7410276 14.4052875,12.7343071 14.4023123,12.7275865 C14.3992078,12.7207501 14.3961033,12.7140296 14.3922227,12.7077725 C14.3882127,12.7013996 14.3832972,12.695606 14.3785111,12.6896965 C14.3735956,12.6837871 14.3688095,12.6779935 14.3631179,12.6726634 C14.3574263,12.6674492 14.3510879,12.6628144 14.3446202,12.6581795 C14.3402221,12.655051 14.3367296,12.6511113 14.3319435,12.6483304 L12.0597014,11.2811626 L14.1865489,10.2897661 C14.2532959,10.2584808 14.2940426,10.1955626 14.2908087,10.1281254 L13.9335314,2.643522 C13.9331434,2.63436815 13.9306856,2.62567779 13.9287453,2.61675568 C13.9278398,2.6130478 13.9277105,2.60922404 13.9266756,2.60551615 C13.9221482,2.5906846 13.9155512,2.5764324 13.9068844,2.56322305 C13.9049441,2.56032627 13.902357,2.55789296 13.900158,2.55511205 C13.8927848,2.5451471 13.8846354,2.53587738 13.8750632,2.52741876 C13.8707945,2.52371087 13.8660084,2.52058234 13.861481,2.51722207 C13.8563068,2.51339831 13.8517794,2.50899519 13.8460878,2.50563492 C13.8418191,2.50308575 13.8367742,2.50169529 13.8322468,2.49949373 C13.8292717,2.4979874 13.8270726,2.49566997 13.8240975,2.49439538 L8.09304404,0.0172945516 C8.04867543,-0.00182424517 7.99796844,-0.00530039004 7.95101274,0.00790896046 L0.135022615,2.18895812 C0.134634551,2.18907399 0.134246488,2.18930574 0.133858424,2.18942161 C0.127131987,2.19139142 0.121569742,2.19486757 0.115231369,2.19741674 C0.104365586,2.20170399 0.0932410947,2.20552775 0.0832807942,2.21166894 C0.082763376,2.21201655 0.0821166032,2.21201655 0.0817285395,2.21236416 C0.0765543574,2.21560857 0.07293243,2.22012755 0.0682756661,2.22371957 C0.0590914929,2.23067186 0.0497779651,2.23739241 0.0424047556,2.24550341 C0.0372305735,2.25129699 0.0337380006,2.25801753 0.0293399458,2.26439047 C0.0240364091,2.27215386 0.0180860997,2.27956963 0.0142054631,2.28791238 C0.0107128902,2.29544403 0.00916063559,2.3036709 0.00683225365,2.31166604 C0.00476258081,2.3187342 0.00139936245,2.32545474 0,2.33287052 C0,2.33391336 0.000493880578,2.33495621 0.000364526026,2.33611492 C-0.000540955841,2.34387831 0.000493880578,2.35140996 0.000752589683,2.35917335 C0.00101129879,2.3683272 0.000623235131,2.37736517 0.00256355342,2.38651902 C0.00282226252,2.38779361 0.00243419887,2.38895232 0.00269290797,2.39011104 L1.74665098,9.93554696 C1.75596451,9.97587024 1.7810593,10.0120221 1.81727857,10.037398 L4.18433753,11.6900731 L2.47310615,12.4199477 C2.46974293,12.4213382 2.46715584,12.4235397 2.46405133,12.4251619 C2.46172295,12.4263206 2.4590065,12.4265524 2.45680748,12.427827 C2.4533149,12.429565 2.45111588,12.4324618 2.44788201,12.4344316 C2.43740429,12.4409204 2.42783206,12.4479886 2.4191653,12.4558679 C2.41476725,12.4599234 2.41023984,12.463863 2.4063592,12.4682661 C2.39795116,12.4776517 2.39109536,12.4877325 2.3850157,12.4982768 C2.38281667,12.5022165 2.37997087,12.5056926 2.37803056,12.5097481 C2.37130412,12.5241162 2.36625929,12.5392953 2.36406026,12.5551697 C2.36393091,12.5557491 2.36406026,12.5563284 2.36406026,12.5567919 C2.3636722,12.5596887 2.36418962,12.5625855 2.36406026,12.5654823 C2.36302543,12.5790393 2.36354285,12.592828 2.36625929,12.6065008 C2.36664735,12.6084706 2.36612994,12.6102087 2.366518,12.6120626 L3.67869058,18.2910405 C3.68683992,18.3260337 3.70676052,18.3578984 3.73573594,18.3823472 L5.38319552,19.7724576 L4.2914431,20.3704704 C4.27721409,20.3782338 4.2646667,20.3878511 4.2532835,20.3983954 C4.25056706,20.4010604 4.24836803,20.4040731 4.24565158,20.406854 C4.2362087,20.416819 4.22818872,20.4277109 4.22146228,20.4391822 C4.2191339,20.4432377 4.21680552,20.4471773 4.2148652,20.4513487 C4.20813876,20.4657167 4.20296458,20.4806642 4.2006362,20.4961909 C4.20050684,20.497002 4.20011878,20.4976973 4.20011878,20.4983925 C4.19998943,20.4986242 4.19998943,20.4987401 4.19998943,20.498856 C4.1977904,20.5156574 4.19934265,20.5321111 4.20244716,20.5483331 C4.20283523,20.5501871 4.20231781,20.552041 4.20270587,20.5538949 L5.2193033,24.9517976 C5.22654716,24.9834305 5.24336325,25.0123984 5.26806997,25.0358044 L9.37973377,28.9453087 C9.38529602,28.9506387 9.39163439,28.9548101 9.39784341,28.9593291 C9.40107727,28.9617624 9.40405243,28.9645433 9.40741565,28.9667449 C9.41970433,28.97474 9.4331572,28.9814606 9.44751556,28.9867906 C9.44829168,28.9870224 9.4488091,28.9876017 9.44958523,28.9878335 C9.45100813,28.988297 9.45256038,28.9880652 9.45385393,28.9885287 C9.47571485,28.9957128 9.49822254,29 9.52085959,29 C9.52098894,29 9.52098894,29 9.52098894,29 C9.53987471,29 9.55876047,28.9965239 9.57725817,28.9914255 C9.58178558,28.9902668 9.58644235,28.9887605 9.59096976,28.9871383 C9.59575587,28.9855161 9.60067135,28.984705 9.60545747,28.9826193 C9.61283068,28.9793749 9.61839292,28.9742765 9.62511936,28.970221 C9.63055225,28.9672084 9.63676127,28.965702 9.64180609,28.9619941 L14.9305963,25.1874802 C14.9791043,25.1529505 15.0061394,25.0996496 15.0035523,25.0441471 L14.8798893,22.452797 L16.6467432,23.7849716 C16.6492009,23.7868255 16.6525641,23.7875208 16.6551512,23.7892588 C16.6656289,23.7964429 16.6759773,23.8037428 16.6881366,23.808957 C16.6921466,23.8105792 16.6964153,23.8112744 16.7004253,23.8126649 C16.7045647,23.8141712 16.7088334,23.8154458 16.7131021,23.8166045 C16.7321172,23.8220505 16.7517791,23.8257584 16.7716997,23.8257584 C16.7908441,23.8257584 16.8096006,23.8222822 16.8279689,23.8172997 C16.832367,23.816141 16.836765,23.8147506 16.8411631,23.8132442 C16.8455611,23.8117379 16.8499592,23.8110427 16.8542279,23.8093046 C16.8635414,23.805365 16.871044,23.7994555 16.879452,23.7944731 C16.8835914,23.7919239 16.8886362,23.7907652 16.8926462,23.7878684 L21.1321123,20.7591034 C21.175058,20.7283974 21.2014463,20.682744 21.2046802,20.6337304 L21.3336467,18.7332061 L22.6235703,19.5374702 C22.6265454,19.5393241 22.630038,19.5399035 22.6331425,19.5416416 C22.6365057,19.5434955 22.6390928,19.5462764 22.6425854,19.5478986 C22.650088,19.5514906 22.6581079,19.5533446 22.6658692,19.5560096 C22.6711727,19.5577477 22.6762176,19.5599493 22.6815211,19.5613397 C22.6988546,19.5657428 22.7164468,19.5685237 22.7342978,19.5685237 C22.7534422,19.5685237 22.7721987,19.5650476 22.7904376,19.5600651 C22.7949651,19.5589064 22.7993631,19.5576318 22.8037612,19.5560096 C22.8080299,19.5546192 22.8125573,19.5539239 22.8166966,19.5521859 C22.8278211,19.5474351 22.8373933,19.5409463 22.8470949,19.5346893 C22.849682,19.5329512 22.8527865,19.5323718 22.8552443,19.5306338 L26.3136676,17.0612963 C26.352862,17.0333713 26.3783449,16.9931639 26.3850713,16.9487851 L26.9984706,12.8823908 C26.9991174,12.8781036 26.9980825,12.8739322 26.9983412,12.869645 C26.9987293,12.8628086 27.0002816,12.856088 26.9999553,12.8491357 L26.9999553,12.8491357 Z" id="Fill-16" fill="#FFFFFF" mask="url(#mask-2)"></path>
        </g>
    </g>
</svg>