<?xml version="1.0" encoding="UTF-8"?>
<svg width="500px" height="500px" viewBox="0 0 500 500" version="1.1" xmlns="http://www.w3.org/2000/svg" xmlns:xlink="http://www.w3.org/1999/xlink">
    <!-- Generator: Sketch 61.2 (89653) - https://sketch.com -->
    <title>Artboard</title>
    <desc>Created with Sketch.</desc>
    <g id="Artboard" stroke="none" stroke-width="1" fill="none" fill-rule="evenodd">
        <path d="M93,409.077552 C113.632835,391.829121 133.662556,375.184226 153.692277,358.253446 C162.61201,368.450032 170.325516,378.900739 179.562677,387.540837 C201.782653,408.823431 227.906996,409.109317 255.745451,399.579797 C282.536393,390.336163 299.772746,372.45243 304.692883,343.768576 C307.867165,324.36012 302.248686,308.032876 285.298019,297.232754 C273.299232,289.545608 260.34816,283.35142 247.714517,276.585461 C240.032754,272.583062 232.033562,268.86655 224.320057,265.181802 C115.791347,212.134141 133.662556,93.2057334 211.908613,38.2839339 C263.966842,1.91293306 317.866154,6.51886766 372.082895,32.4391617 C383.764254,37.9980483 394.556814,45.6851943 407,53.0864547 C389.446219,74.9725854 373.130408,95.3022277 357.100283,115.028334 C342.625556,108.675321 329.071371,101.178765 314.596644,96.858716 C280.409624,86.3762441 249.619086,100.543464 233.906389,132.626181 C223.431258,154.194661 228.033967,173.603116 248.666801,185.642076 C269.299636,197.681036 290.567327,206.892905 311.200162,217.978913 C349.704205,238.657972 377.860089,267.913598 383.891225,313.274112 C393.414072,382.934902 358.496967,443.320293 293.963809,472.099443 C217.431864,505.579823 139.249292,481.819553 93,409.077552 Z" id="Path" fill="#FFFFFF"></path>
    </g>
</svg>