<?xml version="1.0" encoding="UTF-8"?>
<svg width="500px" height="500px" viewBox="0 0 500 500" version="1.1" xmlns="http://www.w3.org/2000/svg" xmlns:xlink="http://www.w3.org/1999/xlink" style="background: #222222;">
    <!-- Generator: Sketch 43.1 (39012) - http://www.bohemiancoding.com/sketch -->
    <title>Artboard</title>
    <desc>Created with Sketch.</desc>
    <defs></defs>
    <g id="Page-1" stroke="none" stroke-width="1" fill="none" fill-rule="evenodd">
        <g id="Artboard" fill="#2D2D2D">
            <path d="M227.150909,299.159525 L295.136172,299.159525 C295.136172,251.434771 370.775405,243.330568 370.775405,171.293203 C370.775405,118.165646 323.951118,88 256.416089,88 C195.634562,88 153.312611,111.412144 129,148.331293 L183.478257,180.297874 C197.88573,159.587131 219.947173,146.980592 248.762119,146.980592 C278.027298,146.980592 297.38734,160.937832 297.38734,182.999275 C297.38734,222.169592 227.150909,236.126831 227.150909,299.159525 Z M261.368658,412.168141 C286.581735,412.168141 304.591077,393.708567 304.591077,371.19689 C304.591077,348.23498 286.581735,331.126106 261.368658,331.126106 C236.15558,331.126106 218.146239,348.23498 218.146239,371.19689 C218.146239,393.708567 236.15558,412.168141 261.368658,412.168141 Z" id="?"></path>
        </g>
    </g>
</svg>