<?xml version="1.0" encoding="UTF-8"?>
<svg width="26px" height="24px" viewBox="0 0 26 24" version="1.1" xmlns="http://www.w3.org/2000/svg" xmlns:xlink="http://www.w3.org/1999/xlink">
    <!-- Generator: Sketch 43.1 (39012) - http://www.bohemiancoding.com/sketch -->
    <title>sygnet__mono-on-white</title>
    <desc>Created with Sketch.</desc>
    <defs></defs>
    <g id="Page-1" stroke="none" stroke-width="1" fill="none" fill-rule="evenodd">
        <g id="Proxy-Creator---1b" transform="translate(-83.000000, -218.000000)" fill-rule="nonzero" fill="#FFFFFF">
            <g id="Group-5" transform="translate(71.000000, 211.000000)">
                <g id="sygnet__mono-on-white" transform="translate(12.000000, 7.737754)">
                    <path d="M8.99272205,0.614676832 C8.76085884,0.235325159 8.34933405,0.0028252761 7.90474406,-3.66873493e-15 L1.29082135,-3.66873493e-15 C0.577920403,-3.94170628e-15 8.7305186e-17,0.577920403 0,1.29082135 C2.98009933e-17,1.53416492 0.0681377153,1.77264693 0.196696586,1.9792594 L12.6746363,21.7718534 C12.9127191,22.1458919 13.3253783,22.3723897 13.768761,22.3723897 C14.2121438,22.3723897 14.624803,22.1458919 14.8628858,21.7718534 L18.1698472,16.52866 C18.297511,16.3216517 18.3655747,16.0834288 18.3665437,15.840222 C18.3665437,15.5968784 18.298406,15.3583964 18.1698472,15.1517839 L8.99272205,0.614676832 Z" id="Shape"></path>
                    <path d="M20.1245195,9.95161791 C20.3626023,10.3256564 20.7752615,10.5521542 21.2186442,10.5521542 C21.662027,10.5521542 22.0746862,10.3256564 22.312769,9.95161791 L23.4499211,8.15061479 L25.6197304,4.70842453 C25.7482892,4.50181206 25.816427,4.26333006 25.816427,4.01998648 C25.8154579,3.77677961 25.7473942,3.53855678 25.6197304,3.33154843 L23.8986352,0.614676832 C23.6639317,0.23522954 23.2506681,0.00305900504 22.8045105,-3.66873493e-15 L16.1905878,-3.66873493e-15 C15.8482407,-4.21467762e-15 15.5199152,0.135996859 15.2778392,0.378072819 C15.0357633,0.62014878 14.8997664,0.948474241 14.8997664,1.29082135 C14.8973993,1.53536846 14.968024,1.77506445 15.1026098,1.9792594 L20.1245195,9.95161791 Z" id="Shape"></path>
                </g>
            </g>
        </g>
    </g>
</svg>